<?xml version="1.0" encoding="UTF-8"?>
<svg id="Layer_1" data-name="Layer 1" xmlns="http://www.w3.org/2000/svg" viewBox="0 0 3072 1022.94">
  <defs>
    <style>
      .cls-1 {
        fill: #fff;
      }
    </style>
  </defs>
  <rect width="3072" height="1022.94"/>
  <g>
    <path class="cls-1" d="M309.5,828.96V195.81h309.34c79.6,0,139.43,15.08,179.54,45.23,40.09,30.15,60.15,69.95,60.15,119.39,0,33.17-8.14,61.96-24.43,86.38-16.28,24.42-38.75,43.28-67.38,56.53-28.65,13.27-61.05,19.9-97.24,19.9l17.19-37.99c39.8,0,74.92,6.64,105.38,19.9,30.44,13.27,54.41,32.56,71.9,57.89,17.48,25.33,26.24,56.39,26.24,93.16,0,54.27-21.41,96.64-64.22,127.08-42.82,30.46-105.82,45.68-189.04,45.68h-327.43ZM455.12,718.61h171.86c37.38,0,66.03-6.33,85.93-18.99,19.9-12.67,29.85-32.25,29.85-58.79s-9.95-47.04-29.85-59.7c-19.9-12.66-48.54-19-85.93-19h-182.71v-106.73h156.48c35.57,0,62.86-6.18,81.85-18.54,19-12.35,28.49-31.2,28.49-56.53s-9.5-44.01-28.49-56.08c-18.99-12.06-46.28-18.1-81.85-18.1h-145.63v412.45Z"/>
    <path class="cls-1" d="M1001.44,828.96V195.81h478.48v117.58h-332.86v397.98h344.62v117.58h-490.24ZM1136.21,564.85v-114.87h304.81v114.87h-304.81Z"/>
    <path class="cls-1" d="M1739.5,828.96V315.21h-202.61v-119.39h551.74v119.39h-202.61v513.76h-146.53Z"/>
    <path class="cls-1" d="M2052.47,828.96l281.3-633.15h144.72l284.01,633.15h-153.77l-232.46-558.98h58.79l-232.46,558.98h-150.15ZM2194.47,693.29l37.09-111.25h327.43l37.99,111.25h-402.5Z"/>
  </g>
</svg>