<?xml version="1.0" encoding="UTF-8"?>
<svg id="Layer_1" data-name="Layer 1" xmlns="http://www.w3.org/2000/svg" viewBox="0 0 1024 504.71">
  <defs>
    <style>
      .cls-1 {
        fill: #2563EB;
      }
    </style>
  </defs>
  <path class="cls-1" d="M241.2,504.71c-49.73,0-92.72-8.94-128.96-26.84-36.25-17.88-64.03-42.63-83.3-74.24C9.64,372.03,0,335.08,0,292.79s7.32-79.93,21.96-115.72c14.64-35.78,35.31-66.8,62.04-93.06,26.72-26.25,58.56-46.82,95.5-61.69C216.45,7.44,257.69,0,303.25,0s82.25,7.44,115.72,22.31c33.46,14.88,58.56,36.02,75.29,63.43l-81.56,66.92c-12.09-18.13-27.88-32.18-47.4-42.17-19.52-9.99-42.76-14.99-69.71-14.99s-52.29,4.88-74.59,14.64c-22.31,9.76-41.48,23.35-57.51,40.78-16.04,17.43-28.23,37.64-36.6,60.65-8.36,23-12.55,47.75-12.55,74.24,0,24.64,5.23,46.13,15.69,64.48,10.46,18.37,26.02,32.76,46.7,43.22,20.67,10.46,45.42,15.69,74.24,15.69,25.1,0,48.56-4.64,70.41-13.94,21.84-9.29,41.59-23.7,59.26-43.22l66.23,68.31c-25.1,29.75-55.07,51.24-89.93,64.48-34.86,13.25-73.44,19.87-115.72,19.87Z"/>
  <path d="M674.75,496.34l81.56-411.29h-161.73l16.03-76.68h413.39l-15.34,76.68h-161.73l-82.26,411.29h-89.93Z"/>
</svg>
